<svg width="240" height="60" viewBox="0 0 240 60" fill="none" xmlns="http://www.w3.org/2000/svg">
<path d="M14.2737 29.9995L20.8187 18.792H41.1817L47.7266 29.9995L37.5455 47.4334H24.4549L14.2737 29.9995Z" fill="#FBBC05"/>
<path fill-rule="evenodd" clip-rule="evenodd" d="M36.818 11.3208C34.2323 6.89306 27.7677 6.89306 25.182 11.3208L20.8187 18.7924L19.3641 18.7925C14.1928 18.7925 10.9605 24.3269 13.5462 28.7547L14.2737 29.9999L9.91 37.4717C7.32434 41.8994 10.5566 47.4339 15.7279 47.4339L24.4549 47.4338L25.182 48.6792C27.7677 53.1069 34.2323 53.1069 36.818 48.6792L37.5455 47.4338L46.2721 47.4339C51.4434 47.4339 54.6757 41.8994 52.09 37.4717L47.7266 29.9999L48.4538 28.7547C51.0395 24.3269 47.8072 18.7925 42.6359 18.7925L41.1817 18.7924L36.818 11.3208ZM41.1817 18.7924H20.8187L14.2737 29.9999L24.4549 47.4338H37.5455L47.7266 29.9999L41.1817 18.7924Z" fill="#FACE4D"/>
<path d="M85.8568 32.6545C85.115 32.6545 84.5489 32.4625 84.1585 32.0785C83.7681 31.6946 83.5046 31.2051 83.368 30.6099C83.2313 30.0148 83.1435 29.4005 83.1044 28.767C83.1044 28.4023 83.124 27.9703 83.163 27.4712C83.202 26.9721 83.2508 26.4921 83.3094 26.0314C83.3875 25.5515 83.446 25.1963 83.4851 24.966H76.7798C75.5305 26.2522 74.3397 27.5096 73.2075 28.7382C72.0949 29.9476 71.0017 31.1763 69.9281 32.4241H67C67.5075 31.9634 68.1712 31.349 68.9911 30.5812C69.8305 29.7941 70.7772 28.9014 71.8313 27.9031C72.8854 26.9049 73.9786 25.849 75.1108 24.7356C76.2625 23.603 77.4142 22.4703 78.5659 21.3377C79.7176 20.1859 80.801 19.082 81.8161 18.0262C82.8507 16.9511 83.7681 15.9817 84.5685 15.1178C84.9589 14.6955 85.32 14.2731 85.6519 13.8508C86.0032 13.4093 86.3936 13.0445 86.8231 12.7565C87.2525 12.4686 87.7796 12.3246 88.4042 12.3246H90.5125C90.1806 12.6318 89.8488 13.1501 89.5169 13.8796C89.1851 14.6091 88.8825 15.3962 88.6092 16.2408C88.3554 17.0855 88.1407 17.8534 87.965 18.5445C87.7113 19.5812 87.4477 20.7042 87.1745 21.9136C86.9207 23.123 86.7157 24.3229 86.5596 25.5131C86.4034 26.7033 86.3546 27.8072 86.4132 28.8246C86.4327 29.1894 86.501 29.5733 86.6181 29.9764C86.7548 30.3604 86.9402 30.6963 87.1745 30.9843C87.4282 31.2531 87.7406 31.3874 88.1114 31.3874C88.4433 31.3874 88.8044 31.2627 89.1948 31.0131L89.3705 31.2723C89.1167 31.6562 88.6287 31.9825 87.9065 32.2513C87.2037 32.5201 86.5205 32.6545 85.8568 32.6545ZM74.1445 18.055C73.8322 17.7286 73.5979 17.3927 73.4418 17.0471C73.3051 16.7016 73.2368 16.3752 73.2368 16.0681C73.2368 15.6841 73.3149 15.3194 73.4711 14.9738C73.6467 14.6091 73.8517 14.3019 74.0859 14.0524C74.5544 13.534 75.1401 13.1501 75.8428 12.9005C76.5455 12.651 77.2873 12.4974 78.0681 12.4398C78.8685 12.363 79.6298 12.3246 80.352 12.3246H86.9109C86.501 12.7277 85.8763 13.0445 85.037 13.2749C84.2171 13.486 83.3192 13.6492 82.3431 13.7644C81.3671 13.8604 80.4204 13.9564 79.5029 14.0524C78.6049 14.1291 77.8632 14.2347 77.2776 14.3691C76.243 14.5995 75.4524 15.041 74.9058 15.6937C74.3788 16.3464 74.125 17.1335 74.1445 18.055ZM78.0681 23.5262H83.69C83.9243 22.2592 84.1976 20.9921 84.5099 19.7251C84.8418 18.4581 85.1346 17.3447 85.3883 16.3848C84.1976 17.4983 82.9775 18.6597 81.7282 19.8691C80.4984 21.0593 79.2784 22.2784 78.0681 23.5262ZM93.4991 32.5969C92.9525 32.5969 92.5426 32.4049 92.2693 32.0209C91.996 31.6178 91.8594 31.0803 91.8594 30.4084C91.8594 30.3124 91.8594 30.2164 91.8594 30.1204C91.8594 30.0244 91.8691 29.9284 91.8887 29.8325C91.9863 29.103 92.1522 28.2775 92.3864 27.356C92.6402 26.4346 92.933 25.4651 93.2649 24.4476C93.4601 23.8717 93.7041 23.1518 93.9969 22.288C94.3092 21.4049 94.6703 20.4642 95.0803 19.466C95.4902 18.4485 95.9392 17.4407 96.4272 16.4424C96.9347 15.4442 97.4911 14.5419 98.0962 13.7356C98.7013 12.9101 99.3357 12.2478 99.9994 11.7487C100.683 11.2496 101.405 11 102.166 11C102.791 11 103.22 11.1536 103.455 11.4607C103.689 11.7487 103.806 12.0942 103.806 12.4974C103.806 12.9197 103.728 13.3517 103.572 13.7932C103.416 14.2155 103.259 14.5707 103.103 14.8586C102.752 15.5497 102.293 16.3272 101.727 17.1911C101.161 18.055 100.566 18.8613 99.9409 19.6099C99.57 20.0899 99.1113 20.6274 98.5647 21.2225C98.0181 21.8176 97.5008 22.3647 97.0128 22.8639C96.5443 23.363 96.2027 23.7086 95.988 23.9005L95.5195 25.2251C95.3828 25.5899 95.2462 26.0218 95.1095 26.5209C94.9924 27.0201 94.8851 27.5192 94.7875 28.0183C94.7094 28.4983 94.6411 28.9206 94.5825 29.2853C94.563 29.3621 94.5532 29.4389 94.5532 29.5157C94.5532 29.5925 94.5532 29.6597 94.5532 29.7173C94.5532 30.2932 94.7777 30.5812 95.2267 30.5812C95.5 30.5812 95.8416 30.4564 96.2515 30.2068C96.6419 29.9764 97.0128 29.6789 97.3642 29.3141C97.7351 28.9302 97.9986 28.6422 98.1547 28.4503C98.5452 27.9511 98.916 27.4232 99.2674 26.8665C99.6188 26.2906 99.9214 25.7627 100.175 25.2827C100.273 25.1291 100.341 25.0524 100.38 25.0524C100.497 25.0524 100.556 25.2155 100.556 25.5419C100.556 25.6955 100.526 25.8778 100.468 26.089C100.429 26.281 100.361 26.4634 100.263 26.6361C99.9897 27.0969 99.6676 27.6056 99.2967 28.1623C98.9258 28.719 98.5452 29.2565 98.1547 29.7749C97.8619 30.1588 97.452 30.5716 96.925 31.0131C96.3979 31.4546 95.8318 31.829 95.2267 32.1361C94.6215 32.4433 94.0457 32.5969 93.4991 32.5969ZM96.5736 22.2592C97.5496 21.1265 98.5354 19.9171 99.5309 18.6309C100.546 17.3255 101.385 16.0009 102.049 14.6571C102.088 14.5611 102.176 14.3691 102.313 14.0812C102.449 13.7932 102.576 13.4764 102.693 13.1309C102.81 12.7661 102.869 12.459 102.869 12.2094C102.869 11.8831 102.742 11.7199 102.488 11.7199H102.283C102.03 11.7199 101.727 11.8927 101.376 12.2382C101.044 12.5838 100.702 13.0445 100.351 13.6204C99.9018 14.3499 99.4626 15.1946 99.0332 16.1545C98.6037 17.0951 98.184 18.0934 97.7741 19.1492C97.3642 20.2051 96.964 21.2417 96.5736 22.2592ZM103.076 32.5969C102.529 32.5969 102.119 32.4049 101.846 32.0209C101.573 31.6178 101.436 31.0803 101.436 30.4084C101.436 30.3124 101.436 30.2164 101.436 30.1204C101.436 30.0244 101.446 29.9284 101.466 29.8325C101.563 29.103 101.729 28.2775 101.963 27.356C102.217 26.4346 102.51 25.4651 102.842 24.4476C103.037 23.8717 103.281 23.1518 103.574 22.288C103.886 21.4049 104.247 20.4642 104.657 19.466C105.067 18.4485 105.516 17.4407 106.004 16.4424C106.512 15.4442 107.068 14.5419 107.673 13.7356C108.278 12.9101 108.913 12.2478 109.576 11.7487C110.26 11.2496 110.982 11 111.743 11C112.368 11 112.797 11.1536 113.031 11.4607C113.266 11.7487 113.383 12.0942 113.383 12.4974C113.383 12.9197 113.305 13.3517 113.149 13.7932C112.992 14.2155 112.836 14.5707 112.68 14.8586C112.329 15.5497 111.87 16.3272 111.304 17.1911C110.738 18.055 110.142 18.8613 109.518 19.6099C109.147 20.0899 108.688 20.6274 108.142 21.2225C107.595 21.8176 107.078 22.3647 106.59 22.8639C106.121 23.363 105.78 23.7086 105.565 23.9005L105.096 25.2251C104.96 25.5899 104.823 26.0218 104.686 26.5209C104.569 27.0201 104.462 27.5192 104.364 28.0183C104.286 28.4983 104.218 28.9206 104.159 29.2853C104.14 29.3621 104.13 29.4389 104.13 29.5157C104.13 29.5925 104.13 29.6597 104.13 29.7173C104.13 30.2932 104.355 30.5812 104.804 30.5812C105.077 30.5812 105.418 30.4564 105.828 30.2068C106.219 29.9764 106.59 29.6789 106.941 29.3141C107.312 28.9302 107.575 28.6422 107.732 28.4503C108.122 27.9511 108.493 27.4232 108.844 26.8665C109.196 26.2906 109.498 25.7627 109.752 25.2827C109.85 25.1291 109.918 25.0524 109.957 25.0524C110.074 25.0524 110.133 25.2155 110.133 25.5419C110.133 25.6955 110.103 25.8778 110.045 26.089C110.006 26.281 109.937 26.4634 109.84 26.6361C109.567 27.0969 109.244 27.6056 108.874 28.1623C108.503 28.719 108.122 29.2565 107.732 29.7749C107.439 30.1588 107.029 30.5716 106.502 31.0131C105.975 31.4546 105.409 31.829 104.804 32.1361C104.198 32.4433 103.623 32.5969 103.076 32.5969ZM106.15 22.2592C107.126 21.1265 108.112 19.9171 109.108 18.6309C110.123 17.3255 110.962 16.0009 111.626 14.6571C111.665 14.5611 111.753 14.3691 111.889 14.0812C112.026 13.7932 112.153 13.4764 112.27 13.1309C112.387 12.7661 112.446 12.459 112.446 12.2094C112.446 11.8831 112.319 11.7199 112.065 11.7199H111.86C111.606 11.7199 111.304 11.8927 110.952 12.2382C110.621 12.5838 110.279 13.0445 109.928 13.6204C109.479 14.3499 109.039 15.1946 108.61 16.1545C108.181 17.0951 107.761 18.0934 107.351 19.1492C106.941 20.2051 106.541 21.2417 106.15 22.2592ZM128.634 18.6021C128.127 18.4293 127.873 18.103 127.873 17.623C127.873 17.1815 128.049 16.7304 128.4 16.2696C128.771 15.7897 129.171 15.4825 129.601 15.3482C129.698 15.3098 129.776 15.2906 129.835 15.2906C129.913 15.2906 129.991 15.2906 130.069 15.2906C130.401 15.2906 130.674 15.3866 130.889 15.5785C131.104 15.7705 131.211 15.9913 131.211 16.2408C131.211 16.5864 131.026 16.8743 130.655 17.1047C130.362 17.0663 130.079 17.1335 129.806 17.3063C129.532 17.4791 129.288 17.6902 129.074 17.9398C128.878 18.1894 128.732 18.4101 128.634 18.6021ZM123.598 32.5969C123.344 32.5969 123.1 32.5393 122.866 32.4241C122.632 32.3281 122.437 32.1265 122.28 31.8194C122.066 31.3586 121.958 30.8115 121.958 30.178C121.958 29.4869 122.066 28.719 122.28 27.8743C122.495 27.0105 122.778 26.1274 123.13 25.2251C123.266 24.8988 123.442 24.4956 123.657 24.0157C123.871 23.5358 124.125 23.0558 124.418 22.5759C124.711 22.096 125.043 21.7024 125.414 21.3953C125.804 21.0689 126.224 20.9058 126.673 20.9058C126.887 20.9058 127.19 20.9154 127.58 20.9346C127.971 20.9538 128.254 20.9538 128.429 20.9346C128.312 21.0113 128.176 21.1649 128.02 21.3953C127.863 21.6257 127.717 21.8656 127.58 22.1152C127.444 22.3456 127.336 22.5279 127.258 22.6623C126.751 23.6606 126.272 24.6492 125.823 25.6283C125.374 26.6073 125.033 27.548 124.799 28.4503C124.76 28.6038 124.73 28.7574 124.711 28.911C124.691 29.0646 124.682 29.2086 124.682 29.3429C124.682 29.8997 124.867 30.178 125.238 30.178C125.394 30.178 125.56 30.1396 125.736 30.0628C125.931 29.9668 126.155 29.8229 126.409 29.6309C126.858 29.2853 127.248 28.8918 127.58 28.4503C127.971 27.9511 128.342 27.4232 128.693 26.8665C129.044 26.2906 129.347 25.7627 129.601 25.2827C129.698 25.1291 129.767 25.0524 129.806 25.0524C129.923 25.0524 129.981 25.2155 129.981 25.5419C129.981 25.6955 129.952 25.8778 129.893 26.089C129.854 26.281 129.786 26.4634 129.689 26.6361C129.415 27.0969 129.093 27.6056 128.722 28.1623C128.351 28.719 127.971 29.2565 127.58 29.7749C127.307 30.1396 126.946 30.5428 126.497 30.9843C126.048 31.4258 125.57 31.8098 125.062 32.1361C124.555 32.4433 124.067 32.5969 123.598 32.5969ZM138.701 32.5969C138.037 32.5969 137.579 32.4049 137.325 32.0209C137.091 31.6178 136.973 31.1571 136.973 30.6387C136.973 30.0052 137.1 29.2469 137.354 28.3639C137.608 27.4616 137.901 26.5593 138.233 25.6571C138.584 24.7356 138.896 23.9197 139.17 23.2094C139.248 23.0367 139.287 22.8543 139.287 22.6623C139.287 22.4511 139.218 22.2976 139.082 22.2016C138.945 22.1056 138.769 22.0576 138.555 22.0576C138.242 22.0576 137.891 22.1536 137.501 22.3456C136.895 22.6527 136.32 23.1422 135.773 23.8141C135.226 24.486 134.787 25.1867 134.455 25.9162C134.084 26.7417 133.753 27.5672 133.46 28.3927C133.167 29.2181 132.933 29.8901 132.757 30.4084C132.64 30.7347 132.533 31.0707 132.435 31.4162C132.337 31.7618 132.24 32.0977 132.142 32.4241H129.302C129.302 32.4241 129.37 32.1841 129.507 31.7042C129.624 31.2243 129.78 30.7443 129.975 30.2644C130.307 29.4197 130.639 28.575 130.971 27.7304C131.322 26.8857 131.625 26.137 131.879 25.4843C131.957 25.2923 132.074 24.9372 132.23 24.4188C132.406 23.8813 132.562 23.3246 132.699 22.7487C132.855 22.1728 132.933 21.7024 132.933 21.3377C132.933 21.1265 132.903 20.9825 132.845 20.9058C133.021 20.9058 133.216 20.9058 133.431 20.9058C133.665 20.8866 133.879 20.877 134.075 20.877C134.348 20.877 134.602 20.8866 134.836 20.9058C135.09 20.925 135.256 20.973 135.334 21.0497C135.568 21.2225 135.685 21.4721 135.685 21.7984C135.685 22.0288 135.636 22.2592 135.539 22.4895C135.461 22.7199 135.402 22.9119 135.363 23.0654C135.636 22.8159 135.919 22.5759 136.212 22.3456C136.505 22.1152 136.954 21.8176 137.559 21.4529C137.91 21.2417 138.35 21.0689 138.877 20.9346C139.404 20.8002 139.882 20.733 140.312 20.733C141.424 20.733 141.981 21.2417 141.981 22.2592C141.981 22.4319 141.961 22.6239 141.922 22.8351C141.902 23.0462 141.844 23.2766 141.746 23.5262C141.649 23.8333 141.492 24.2557 141.278 24.7932C141.063 25.3307 140.839 25.9066 140.604 26.5209C140.39 27.1161 140.204 27.6824 140.048 28.2199C139.892 28.7574 139.814 29.1894 139.814 29.5157C139.814 29.9764 139.989 30.2068 140.341 30.2068C140.653 30.2068 141.044 30.0148 141.512 29.6309C141.961 29.2661 142.351 28.8726 142.683 28.4503C143.093 27.9511 143.464 27.4232 143.796 26.8665C144.147 26.2906 144.45 25.7627 144.704 25.2827C144.801 25.1291 144.87 25.0524 144.909 25.0524C145.026 25.0524 145.084 25.2155 145.084 25.5419C145.084 25.6955 145.055 25.8778 144.996 26.089C144.957 26.281 144.889 26.4634 144.791 26.6361C144.518 27.0969 144.196 27.6056 143.825 28.1623C143.454 28.719 143.074 29.2565 142.683 29.7749C142.41 30.1396 142.049 30.5428 141.6 30.9843C141.151 31.4258 140.673 31.8098 140.165 32.1361C139.658 32.4433 139.17 32.5969 138.701 32.5969ZM149.814 32.712C148.897 32.712 148.155 32.5489 147.589 32.2225C147.023 31.877 146.613 31.4258 146.359 30.8691C146.125 30.2932 146.008 29.6789 146.008 29.0262C146.008 28.3735 146.106 27.7112 146.301 27.0393C146.496 26.3674 146.76 25.7339 147.091 25.1387C147.775 23.9293 148.614 22.9311 149.609 22.144C150.624 21.3569 151.864 20.9634 153.328 20.9634C154.245 20.9634 154.958 21.1937 155.465 21.6545C155.973 22.1152 156.227 22.6527 156.227 23.267C156.227 23.8429 156.051 24.3709 155.7 24.8508C155.368 25.3307 154.919 25.5707 154.353 25.5707C154.04 25.5707 153.767 25.4843 153.533 25.3115C153.299 25.1387 153.181 24.87 153.181 24.5052C153.181 24.4476 153.181 24.3901 153.181 24.3325C153.201 24.2557 153.221 24.1789 153.24 24.1021C153.357 24.0829 153.523 24.0541 153.738 24.0157C153.972 23.9581 154.157 23.8237 154.294 23.6126C154.548 23.267 154.675 22.9215 154.675 22.5759C154.675 22.3647 154.606 22.192 154.47 22.0576C154.353 21.904 154.148 21.8272 153.855 21.8272C153.328 21.8272 152.791 22.0192 152.244 22.4031C151.698 22.7679 151.181 23.2574 150.693 23.8717C150.224 24.486 149.814 25.1579 149.463 25.8874C148.916 27.0585 148.643 28.1335 148.643 29.1126C148.643 29.8229 148.809 30.4084 149.141 30.8691C149.473 31.3106 150 31.5314 150.722 31.5314C151.639 31.5314 152.498 31.2243 153.299 30.6099C154.118 29.9764 154.85 29.2469 155.495 28.4215C155.924 27.8839 156.305 27.3368 156.637 26.7801C156.988 26.2234 157.281 25.7147 157.515 25.2539C157.593 25.1195 157.661 25.0524 157.72 25.0524C157.837 25.0524 157.896 25.2155 157.896 25.5419C157.896 25.6955 157.866 25.8778 157.808 26.089C157.769 26.281 157.7 26.4634 157.603 26.6361C157.271 27.1736 156.929 27.7112 156.578 28.2487C156.246 28.7862 155.885 29.2949 155.495 29.7749C154.831 30.6195 154.05 31.3202 153.152 31.877C152.254 32.4337 151.142 32.712 149.814 32.712ZM160.397 32.5969C159.85 32.5969 159.44 32.4049 159.167 32.0209C158.894 31.6178 158.757 31.0803 158.757 30.4084C158.757 30.3124 158.757 30.2164 158.757 30.1204C158.757 30.0244 158.767 29.9284 158.786 29.8325C158.884 29.103 159.05 28.2775 159.284 27.356C159.538 26.4346 159.831 25.4651 160.162 24.4476C160.358 23.8717 160.602 23.1518 160.895 22.288C161.207 21.4049 161.568 20.4642 161.978 19.466C162.388 18.4485 162.837 17.4407 163.325 16.4424C163.832 15.4442 164.389 14.5419 164.994 13.7356C165.599 12.9101 166.233 12.2478 166.897 11.7487C167.58 11.2496 168.303 11 169.064 11C169.689 11 170.118 11.1536 170.352 11.4607C170.586 11.7487 170.704 12.0942 170.704 12.4974C170.704 12.9197 170.625 13.3517 170.469 13.7932C170.313 14.2155 170.157 14.5707 170.001 14.8586C169.649 15.5497 169.191 16.3272 168.625 17.1911C168.059 18.055 167.463 18.8613 166.839 19.6099C166.468 20.0899 166.009 20.6274 165.462 21.2225C164.916 21.8176 164.398 22.3647 163.91 22.8639C163.442 23.363 163.1 23.7086 162.886 23.9005L162.417 25.2251C162.28 25.5899 162.144 26.0218 162.007 26.5209C161.89 27.0201 161.783 27.5192 161.685 28.0183C161.607 28.4983 161.539 28.9206 161.48 29.2853C161.461 29.3621 161.451 29.4389 161.451 29.5157C161.451 29.5925 161.451 29.6597 161.451 29.7173C161.451 30.2932 161.675 30.5812 162.124 30.5812C162.398 30.5812 162.739 30.4564 163.149 30.2068C163.54 29.9764 163.91 29.6789 164.262 29.3141C164.633 28.9302 164.896 28.6422 165.052 28.4503C165.443 27.9511 165.814 27.4232 166.165 26.8665C166.516 26.2906 166.819 25.7627 167.073 25.2827C167.17 25.1291 167.239 25.0524 167.278 25.0524C167.395 25.0524 167.453 25.2155 167.453 25.5419C167.453 25.6955 167.424 25.8778 167.366 26.089C167.327 26.281 167.258 26.4634 167.161 26.6361C166.887 27.0969 166.565 27.6056 166.194 28.1623C165.823 28.719 165.443 29.2565 165.052 29.7749C164.76 30.1588 164.35 30.5716 163.823 31.0131C163.296 31.4546 162.729 31.829 162.124 32.1361C161.519 32.4433 160.943 32.5969 160.397 32.5969ZM163.471 22.2592C164.447 21.1265 165.433 19.9171 166.429 18.6309C167.444 17.3255 168.283 16.0009 168.947 14.6571C168.986 14.5611 169.074 14.3691 169.21 14.0812C169.347 13.7932 169.474 13.4764 169.591 13.1309C169.708 12.7661 169.767 12.459 169.767 12.2094C169.767 11.8831 169.64 11.7199 169.386 11.7199H169.181C168.927 11.7199 168.625 11.8927 168.273 12.2382C167.941 12.5838 167.6 13.0445 167.248 13.6204C166.799 14.3499 166.36 15.1946 165.931 16.1545C165.501 17.0951 165.082 18.0934 164.672 19.1492C164.262 20.2051 163.862 21.2417 163.471 22.2592ZM169.856 32.5969C169.349 32.5969 168.929 32.3665 168.597 31.9058C168.285 31.4258 168.168 30.6867 168.246 29.6885C168.285 29.2661 168.382 28.7286 168.538 28.0759C168.695 27.4232 168.9 26.7225 169.153 25.9738C169.427 25.2059 169.729 24.4668 170.061 23.7565C170.393 23.0271 170.754 22.3839 171.144 21.8272C171.359 21.5393 171.574 21.3665 171.789 21.3089C172.023 21.2321 172.443 21.1937 173.048 21.1937H174.453C174.121 21.6545 173.77 22.2304 173.399 22.9215C173.028 23.6126 172.687 24.3037 172.374 24.9948C172.062 25.6667 171.818 26.233 171.642 26.6937C171.603 26.8281 171.525 27.0681 171.408 27.4136C171.291 27.74 171.183 28.1047 171.086 28.5079C170.988 28.911 170.939 29.2853 170.939 29.6309C170.939 29.938 170.998 30.1972 171.115 30.4084C171.232 30.6195 171.447 30.7251 171.759 30.7251C172.13 30.7059 172.53 30.4756 172.96 30.034C173.389 29.5925 173.819 29.0262 174.248 28.3351C174.678 27.644 175.097 26.9241 175.507 26.1754C175.937 25.4075 176.317 24.6972 176.649 24.0445C177.001 23.3726 177.293 22.8543 177.528 22.4895C177.82 22.048 178.133 21.6641 178.465 21.3377C178.796 20.9921 179.177 20.8194 179.607 20.8194C179.763 20.8194 179.968 20.829 180.221 20.8482C180.495 20.8482 180.758 20.8482 181.012 20.8482C181.285 20.8482 181.471 20.8386 181.568 20.8194C181.451 20.8962 181.315 21.0497 181.158 21.2801C181.002 21.5105 180.846 21.7504 180.69 22C180.553 22.2304 180.446 22.4223 180.368 22.5759C179.86 23.5742 179.363 24.582 178.875 25.5995C178.406 26.5977 178.055 27.548 177.82 28.4503C177.723 28.7958 177.674 29.0934 177.674 29.3429C177.674 29.9188 177.869 30.2068 178.26 30.2068C178.533 30.2068 178.923 30.0148 179.431 29.6309C179.821 29.3237 180.202 28.9302 180.573 28.4503C180.983 27.9511 181.363 27.4136 181.715 26.8377C182.066 26.2618 182.369 25.7339 182.622 25.2539C182.701 25.1195 182.769 25.0524 182.827 25.0524C182.945 25.0524 183.003 25.2059 183.003 25.5131C183.003 25.6667 182.974 25.849 182.915 26.0602C182.876 26.2522 182.798 26.4442 182.681 26.6361C182.408 27.0969 182.086 27.6056 181.715 28.1623C181.344 28.6998 180.963 29.2373 180.573 29.7749C180.3 30.1204 179.938 30.514 179.489 30.9555C179.04 31.397 178.562 31.781 178.055 32.1073C177.567 32.4337 177.088 32.5969 176.62 32.5969C176.347 32.5969 176.093 32.5393 175.859 32.4241C175.624 32.3281 175.429 32.1265 175.273 31.8194C175.078 31.4162 174.98 30.8691 174.98 30.178C174.98 29.9668 174.99 29.7461 175.009 29.5157C175.029 29.2661 175.058 29.0166 175.097 28.767C174.805 29.1702 174.492 29.5445 174.16 29.8901C173.848 30.2356 173.526 30.5812 173.194 30.9267C172.452 31.6562 171.818 32.1169 171.291 32.3089C170.783 32.5009 170.305 32.5969 169.856 32.5969ZM187.519 33C186.855 33 186.231 32.9136 185.645 32.7408C185.059 32.5681 184.581 32.2993 184.21 31.9346C183.839 31.5698 183.654 31.1091 183.654 30.5524C183.654 30.13 183.781 29.7173 184.034 29.3141C184.308 28.911 184.688 28.7094 185.176 28.7094C185.391 28.7094 185.586 28.7574 185.762 28.8534C185.938 28.9494 186.055 29.0742 186.113 29.2277C186.094 29.2469 186.045 29.3141 185.967 29.4293C185.889 29.5253 185.84 29.5925 185.821 29.6309C185.645 29.9764 185.557 30.2932 185.557 30.5812C185.557 30.9843 185.703 31.3106 185.996 31.5602C186.309 31.8098 186.709 31.9346 187.197 31.9346C187.841 31.9154 188.397 31.6946 188.866 31.2723C189.354 30.8307 189.598 30.3124 189.598 29.7173C189.598 29.3717 189.52 29.0454 189.364 28.7382C189.11 28.2199 188.768 27.7784 188.339 27.4136C187.929 27.0297 187.529 26.6457 187.138 26.2618C186.767 25.8778 186.494 25.4171 186.318 24.8796C186.24 24.63 186.201 24.3229 186.201 23.9581C186.201 23.5934 186.25 23.2382 186.348 22.8927C186.445 22.5279 186.592 22.2208 186.787 21.9712C187.06 21.6065 187.47 21.2705 188.017 20.9634C188.7 20.5986 189.5 20.4162 190.418 20.4162C191.023 20.4162 191.56 20.493 192.028 20.6466C192.379 20.7618 192.682 20.9538 192.936 21.2225C193.209 21.4721 193.346 21.808 193.346 22.2304C193.346 22.7103 193.19 23.171 192.877 23.6126C192.584 24.0349 192.155 24.2941 191.589 24.3901C191.238 24.4284 190.925 24.3709 190.652 24.2173C190.379 24.0445 190.281 23.7277 190.359 23.267C190.886 23.1518 191.267 22.9407 191.501 22.6335C191.618 22.4607 191.677 22.288 191.677 22.1152C191.677 21.7888 191.54 21.5681 191.267 21.4529C191.013 21.3185 190.769 21.2513 190.535 21.2513C190.242 21.2513 189.959 21.2897 189.686 21.3665C189.432 21.4241 189.198 21.5297 188.983 21.6832C188.553 22.048 188.339 22.4703 188.339 22.9503C188.339 23.0271 188.348 23.1134 188.368 23.2094C188.407 23.3054 188.436 23.4014 188.456 23.4974C188.553 23.7469 188.7 23.9773 188.895 24.1885C189.09 24.3997 189.285 24.582 189.481 24.7356C189.969 25.0812 190.466 25.4555 190.974 25.8586C191.501 26.2618 191.891 26.7513 192.145 27.3272C192.34 27.7304 192.438 28.1431 192.438 28.5654C192.438 29.1414 192.292 29.6693 191.999 30.1492C191.706 30.6099 191.374 30.9747 191.003 31.2435C191.647 30.9747 192.272 30.5044 192.877 29.8325C193.502 29.1414 194.039 28.4599 194.488 27.788C194.781 27.3464 195.044 26.9337 195.278 26.5497C195.532 26.1466 195.786 25.7051 196.04 25.2251C196.118 25.0908 196.186 25.0236 196.245 25.0236C196.362 25.0236 196.42 25.1867 196.42 25.5131C196.42 25.6475 196.391 25.8106 196.332 26.0026C196.293 26.1946 196.225 26.3866 196.127 26.5785C195.776 27.1545 195.444 27.692 195.132 28.1911C194.82 28.671 194.439 29.199 193.99 29.7749C193.092 30.9459 192.135 31.781 191.12 32.2801C190.105 32.76 188.905 33 187.519 33ZM203.739 18.6021C203.231 18.4293 202.977 18.103 202.977 17.623C202.977 17.1815 203.153 16.7304 203.505 16.2696C203.875 15.7897 204.276 15.4825 204.705 15.3482C204.803 15.3098 204.881 15.2906 204.939 15.2906C205.017 15.2906 205.095 15.2906 205.174 15.2906C205.505 15.2906 205.779 15.3866 205.993 15.5785C206.208 15.7705 206.315 15.9913 206.315 16.2408C206.315 16.5864 206.13 16.8743 205.759 17.1047C205.466 17.0663 205.183 17.1335 204.91 17.3063C204.637 17.4791 204.393 17.6902 204.178 17.9398C203.983 18.1894 203.836 18.4101 203.739 18.6021ZM198.702 32.5969C198.449 32.5969 198.205 32.5393 197.97 32.4241C197.736 32.3281 197.541 32.1265 197.385 31.8194C197.17 31.3586 197.063 30.8115 197.063 30.178C197.063 29.4869 197.17 28.719 197.385 27.8743C197.6 27.0105 197.883 26.1274 198.234 25.2251C198.371 24.8988 198.546 24.4956 198.761 24.0157C198.976 23.5358 199.23 23.0558 199.522 22.5759C199.815 22.096 200.147 21.7024 200.518 21.3953C200.908 21.0689 201.328 20.9058 201.777 20.9058C201.992 20.9058 202.294 20.9154 202.685 20.9346C203.075 20.9538 203.358 20.9538 203.534 20.9346C203.417 21.0113 203.28 21.1649 203.124 21.3953C202.968 21.6257 202.821 21.8656 202.685 22.1152C202.548 22.3456 202.441 22.5279 202.363 22.6623C201.855 23.6606 201.377 24.6492 200.928 25.6283C200.479 26.6073 200.137 27.548 199.903 28.4503C199.864 28.6038 199.835 28.7574 199.815 28.911C199.796 29.0646 199.786 29.2086 199.786 29.3429C199.786 29.8997 199.971 30.178 200.342 30.178C200.498 30.178 200.664 30.1396 200.84 30.0628C201.035 29.9668 201.26 29.8229 201.513 29.6309C201.962 29.2853 202.353 28.8918 202.685 28.4503C203.075 27.9511 203.446 27.4232 203.797 26.8665C204.149 26.2906 204.451 25.7627 204.705 25.2827C204.803 25.1291 204.871 25.0524 204.91 25.0524C205.027 25.0524 205.086 25.2155 205.086 25.5419C205.086 25.6955 205.056 25.8778 204.998 26.089C204.959 26.281 204.891 26.4634 204.793 26.6361C204.52 27.0969 204.198 27.6056 203.827 28.1623C203.456 28.719 203.075 29.2565 202.685 29.7749C202.411 30.1396 202.05 30.5428 201.601 30.9843C201.152 31.4258 200.674 31.8098 200.167 32.1361C199.659 32.4433 199.171 32.5969 198.702 32.5969ZM207.363 32.6257C206.856 32.6257 206.446 32.3569 206.133 31.8194C205.821 31.2819 205.704 30.5716 205.782 29.6885C205.821 29.1318 205.948 28.4311 206.163 27.5864C206.397 26.7225 206.69 25.8586 207.041 24.9948C207.392 24.1117 207.763 23.363 208.154 22.7487C208.661 21.9616 209.227 21.4529 209.852 21.2225C210.496 20.9921 211.296 20.877 212.253 20.877C212.331 20.877 212.37 20.9154 212.37 20.9921C212.37 21.0689 212.312 21.1649 212.194 21.2801C211.921 21.5105 211.599 21.9328 211.228 22.5471C210.857 23.1614 210.496 23.8333 210.145 24.5628C209.813 25.2923 209.52 25.9642 209.266 26.5785C209.071 27.0777 208.886 27.596 208.71 28.1335C208.554 28.671 208.476 29.151 208.476 29.5733C208.476 29.9188 208.544 30.1972 208.681 30.4084C208.837 30.6195 209.1 30.7251 209.471 30.7251C209.862 30.7059 210.291 30.4276 210.76 29.8901C211.228 29.3525 211.677 28.6902 212.107 27.9031C212.536 27.1161 212.887 26.3482 213.161 25.5995C213.122 25.3883 213.083 25.1675 213.044 24.9372C213.024 24.7068 213.014 24.4668 213.014 24.2173C213.014 23.8717 213.044 23.5166 213.102 23.1518C213.18 22.7679 213.288 22.3935 213.424 22.0288C213.678 21.3953 214.029 21.0209 214.478 20.9058C214.556 20.8866 214.625 20.877 214.683 20.877C214.761 20.8578 214.839 20.8482 214.918 20.8482C215.288 20.8482 215.532 20.9825 215.65 21.2513C215.786 21.5009 215.855 21.7984 215.855 22.144C215.855 22.4895 215.815 22.8351 215.737 23.1806C215.659 23.507 215.591 23.7565 215.532 23.9293C215.396 24.2941 215.24 24.6492 215.064 24.9948C214.888 25.3211 214.713 25.6475 214.537 25.9738C214.576 26.5689 214.732 27.0297 215.005 27.356C215.298 27.6824 215.64 27.8455 216.03 27.8455C216.518 27.8455 217.006 27.6344 217.494 27.212C217.768 26.9817 218.012 26.6937 218.226 26.3482C218.461 25.9834 218.665 25.6475 218.841 25.3403C218.939 25.1675 219.007 25.1291 219.046 25.2251C219.085 25.3211 219.105 25.4747 219.105 25.6859C219.105 25.8586 219.085 26.0506 219.046 26.2618C219.027 26.4538 218.978 26.6073 218.9 26.7225C218.626 27.2024 218.314 27.6056 217.963 27.9319C217.611 28.2391 217.24 28.4695 216.85 28.623C216.538 28.7382 216.216 28.7958 215.884 28.7958C215.435 28.7958 215.015 28.671 214.625 28.4215C214.254 28.1527 213.961 27.7496 213.746 27.212C213.336 27.8072 212.956 28.3543 212.604 28.8534C212.273 29.3333 212.019 29.6789 211.843 29.8901C211.257 30.6195 210.584 31.2627 209.823 31.8194C209.081 32.3569 208.261 32.6257 207.363 32.6257ZM225.876 32.0209C224.978 32.4817 224.031 32.712 223.036 32.712C222.196 32.712 221.415 32.5105 220.693 32.1073C219.971 31.7042 219.483 31.0611 219.229 30.178C219.112 29.7749 219.053 29.3525 219.053 28.911C219.053 28.1815 219.18 27.4328 219.434 26.6649C219.707 25.8778 220.059 25.1579 220.488 24.5052C221.152 23.4878 221.991 22.6431 223.006 21.9712C224.021 21.2993 225.144 20.9634 226.374 20.9634C227.291 20.9634 228.004 21.1937 228.511 21.6545C229.019 22.1152 229.272 22.6527 229.272 23.267C229.272 23.9965 229.019 24.6396 228.511 25.1963C228.023 25.7339 227.379 26.1466 226.579 26.4346C226.188 26.5689 225.769 26.6745 225.32 26.7513C224.89 26.8089 224.48 26.8377 224.09 26.8377C223.289 26.8377 222.675 26.7321 222.245 26.5209C221.874 27.4616 221.689 28.3255 221.689 29.1126C221.689 29.8229 221.855 30.4084 222.186 30.8691C222.518 31.3106 223.045 31.5314 223.768 31.5314C224.373 31.5314 224.968 31.3682 225.554 31.0419C226.159 30.7155 226.715 30.3124 227.223 29.8325C227.75 29.3525 228.189 28.8918 228.54 28.4503C228.814 28.1239 229.048 27.8168 229.243 27.5288C229.438 27.2408 229.643 26.9145 229.858 26.5497C230.073 26.1658 230.327 25.6955 230.619 25.1387C230.697 25.0044 230.766 24.9372 230.824 24.9372C230.941 24.9372 231 25.0908 231 25.3979C231 25.5707 230.971 25.7627 230.912 25.9738C230.873 26.1658 230.795 26.3674 230.678 26.5785C230.405 27.0585 230.073 27.5864 229.682 28.1623C229.311 28.719 228.931 29.2565 228.54 29.7749C228.189 30.2356 227.789 30.6579 227.34 31.0419C226.891 31.4258 226.403 31.7522 225.876 32.0209ZM223.211 25.8874C223.309 25.945 223.416 25.9834 223.533 26.0026C223.651 26.0218 223.768 26.0314 223.885 26.0314C224.275 26.0314 224.666 25.945 225.056 25.7723C225.446 25.5803 225.778 25.3883 226.052 25.1963C226.501 24.8892 226.881 24.5244 227.194 24.1021C227.506 23.6798 227.682 23.1998 227.721 22.6623C227.74 22.4319 227.682 22.24 227.545 22.0864C227.428 21.9136 227.213 21.8272 226.901 21.8272C226.745 21.8272 226.549 21.856 226.315 21.9136C226.003 21.9904 225.69 22.1344 225.378 22.3456C225.066 22.5567 224.763 22.8063 224.47 23.0942C224.373 23.1902 224.197 23.3822 223.943 23.6702C223.709 23.9389 223.485 24.2461 223.27 24.5916C223.055 24.918 222.948 25.2059 222.948 25.4555C222.948 25.6667 223.036 25.8106 223.211 25.8874Z" fill="#FBBC05"/>
<path d="M67.9121 49.9999V41.1319H69.2921L72.5201 48.6799L75.7361 41.1319H77.1161V49.9999H76.2281V42.1039L72.8921 49.9999H72.1241L68.8001 42.1039V49.9999H67.9121ZM85.5612 43.4359V49.9999H84.6732V48.8479C83.9772 49.7839 83.2692 50.1558 82.1532 50.1558C80.1252 50.1558 78.6252 48.7039 78.6252 46.7359C78.6252 44.7679 80.1132 43.2799 82.0812 43.2799C83.2212 43.2799 84.0132 43.6758 84.6732 44.5998V43.4359H85.5612ZM82.0692 44.0959C80.6652 44.0959 79.5252 45.2599 79.5252 46.6999C79.5252 48.1759 80.6892 49.3399 82.1412 49.3399C83.5692 49.3399 84.6732 48.1879 84.6732 46.6999C84.6732 45.2119 83.5572 44.0959 82.0692 44.0959ZM87.0686 43.4359H87.9566V44.5639C88.5086 43.7239 89.4086 43.2799 90.5366 43.2799C92.4926 43.2799 93.9926 44.7679 93.9926 46.7239C93.9926 48.6559 92.4806 50.1558 90.5126 50.1558C89.4206 50.1558 88.5326 49.7119 87.9566 48.8719V52.3039H87.0686V43.4359ZM90.4646 44.0959C89.0246 44.0959 87.8966 45.2479 87.8966 46.7239C87.8966 48.1999 89.0246 49.3399 90.5006 49.3399C91.9766 49.3399 93.0926 48.2239 93.0926 46.7479C93.0926 45.1999 91.9886 44.0959 90.4646 44.0959ZM95.2483 43.4359H96.1363V46.3638L99.1363 43.4359H100.288L97.0123 46.6159L100.288 49.9999H99.1243L96.1363 46.9039V49.9999H95.2483V43.4359ZM107.473 47.0119H101.533C101.605 48.3079 102.733 49.3399 104.089 49.3399C105.085 49.3399 106.009 48.7399 106.381 47.8399H107.305C106.825 49.2199 105.541 50.1558 104.113 50.1558C102.169 50.1558 100.645 48.6319 100.645 46.6879C100.645 44.7799 102.145 43.2799 104.041 43.2799C105.337 43.2799 106.501 43.9639 107.077 45.0679C107.365 45.6199 107.473 46.1359 107.473 47.0119ZM101.557 46.2079H106.585C106.285 44.8999 105.313 44.0959 104.041 44.0959C102.793 44.0959 101.797 44.9479 101.557 46.2079ZM112.14 44.2399H110.436V49.9999H109.548V44.2399H107.82V43.4359H112.14V44.2399ZM118.689 49.9999H117.801V44.2399H113.925V49.9999H113.037V43.4359H118.689V49.9999ZM126.137 49.9999H125.201L122.825 44.4439L120.437 49.9999H119.501L122.321 43.4359H123.317L126.137 49.9999ZM133.195 47.0119H127.255C127.327 48.3079 128.455 49.3399 129.811 49.3399C130.807 49.3399 131.731 48.7399 132.103 47.8399H133.027C132.547 49.2199 131.263 50.1558 129.835 50.1558C127.891 50.1558 126.367 48.6319 126.367 46.6879C126.367 44.7799 127.867 43.2799 129.763 43.2799C131.059 43.2799 132.223 43.9639 132.799 45.0679C133.087 45.6199 133.195 46.1359 133.195 47.0119ZM127.279 46.2079H132.307C132.007 44.8999 131.035 44.0959 129.763 44.0959C128.515 44.0959 127.519 44.9479 127.279 46.2079ZM135.48 41.0479H136.368C136.368 41.7439 136.716 42.0559 137.304 42.0559C137.892 42.0559 138.24 41.7439 138.24 41.0479H139.128C138.948 42.1279 138.264 42.6079 137.304 42.6079C136.344 42.6079 135.66 42.1279 135.48 41.0479ZM139.308 43.4359H140.196V49.9999H139.308V44.6959L135.312 49.9999H134.424V43.4359H135.312V48.7399L139.308 43.4359ZM147.245 48.0679H148.253C147.881 48.7639 147.617 49.1119 147.173 49.4479C146.573 49.9159 145.829 50.1558 145.037 50.1558C143.021 50.1558 141.461 48.6559 141.461 46.6999C141.461 44.7919 143.009 43.2799 144.977 43.2799C146.465 43.2799 147.713 44.1079 148.241 45.4279H147.245C146.741 44.5639 145.937 44.0959 144.965 44.0959C143.501 44.0959 142.361 45.2479 142.361 46.7239C142.361 48.1878 143.525 49.3399 145.001 49.3399C145.937 49.3399 146.561 48.9799 147.245 48.0679ZM152.811 49.9999V43.4359H154.191L156.483 48.7639L158.775 43.4359H160.155V49.9999H159.267V44.4079L156.867 49.9999H156.099L153.699 44.4079V49.9999H152.811ZM168.246 47.0119H162.306C162.378 48.3079 163.506 49.3399 164.862 49.3399C165.858 49.3399 166.782 48.7399 167.154 47.8399H168.078C167.598 49.2199 166.314 50.1558 164.886 50.1558C162.942 50.1558 161.418 48.6319 161.418 46.6879C161.418 44.7799 162.918 43.2799 164.814 43.2799C166.11 43.2799 167.274 43.9639 167.85 45.0679C168.138 45.6199 168.246 46.1359 168.246 47.0119ZM162.33 46.2079H167.358C167.058 44.8999 166.086 44.0959 164.814 44.0959C163.566 44.0959 162.57 44.9479 162.33 46.2079ZM169.475 43.4359H170.363V44.5639C170.915 43.7239 171.815 43.2799 172.943 43.2799C174.899 43.2799 176.399 44.7679 176.399 46.7239C176.399 48.6559 174.887 50.1558 172.919 50.1558C171.827 50.1558 170.939 49.7119 170.363 48.8719V52.3039H169.475V43.4359ZM172.871 44.0959C171.431 44.0959 170.303 45.2479 170.303 46.7239C170.303 48.1999 171.431 49.3399 172.907 49.3399C174.383 49.3399 175.499 48.2239 175.499 46.7479C175.499 45.1999 174.395 44.0959 172.871 44.0959ZM180.882 43.2799C182.814 43.2799 184.254 44.7559 184.254 46.7359C184.254 48.7039 182.838 50.1558 180.906 50.1558C178.902 50.1558 177.402 48.6919 177.402 46.7239C177.402 44.7319 178.866 43.2799 180.882 43.2799ZM180.81 44.0959C179.37 44.0959 178.302 45.2239 178.302 46.7359C178.302 48.2359 179.394 49.3399 180.882 49.3399C182.322 49.3399 183.354 48.2599 183.354 46.7479C183.354 45.1999 182.298 44.0959 180.81 44.0959ZM191.17 49.9999H190.282V44.2399H186.406V49.9999H185.518V43.4359H191.17V49.9999ZM192.678 43.4359H193.566V44.5639C194.118 43.7239 195.018 43.2799 196.146 43.2799C198.102 43.2799 199.602 44.7679 199.602 46.7239C199.602 48.6559 198.09 50.1558 196.122 50.1558C195.03 50.1558 194.142 49.7119 193.566 48.8719V52.3039H192.678V43.4359ZM196.074 44.0959C194.634 44.0959 193.506 45.2479 193.506 46.7239C193.506 48.1999 194.634 49.3399 196.11 49.3399C197.586 49.3399 198.702 48.2239 198.702 46.7479C198.702 45.1999 197.598 44.0959 196.074 44.0959ZM205.742 43.4359H206.63V49.9999H205.742V44.6959L201.746 49.9999H200.858V43.4359H201.746V48.7399L205.742 43.4359ZM211.807 46.5438V44.2399H210.283C209.203 44.2399 208.699 44.6478 208.699 45.3918C208.699 46.1358 209.203 46.5438 210.283 46.5438H211.807ZM210.355 47.3479L208.507 49.9999H207.499L209.395 47.2759C208.399 47.0479 207.799 46.3158 207.799 45.3918C207.799 44.2758 208.675 43.4359 210.055 43.4359H212.695V49.9999H211.807V47.3479H210.355ZM217.913 44.2399H216.209V49.9999H215.321V44.2399H213.593V43.4359H217.913V44.2399ZM223.695 43.4359H224.583V49.9999H223.695V44.6959L219.699 49.9999H218.811V43.4359H219.699V48.7399L223.695 43.4359ZM227.156 41.0479H228.044C228.044 41.7439 228.392 42.0559 228.98 42.0559C229.568 42.0559 229.916 41.7439 229.916 41.0479H230.804C230.624 42.1279 229.94 42.6079 228.98 42.6079C228.02 42.6079 227.336 42.1279 227.156 41.0479ZM230.984 43.4359H231.872V49.9999H230.984V44.6959L226.988 49.9999H226.1V43.4359H226.988V48.7399L230.984 43.4359Z" fill="#837F79"/>
</svg>
