<svg width="46" height="46" viewBox="0 0 46 46" fill="none" xmlns="http://www.w3.org/2000/svg">
<path d="M5.51343 22.9999L12.3559 11.283H33.6445L40.4869 22.9999L29.843 41.2262H16.1573L5.51343 22.9999Z" fill="#FBBC05"/>
<path fill-rule="evenodd" clip-rule="evenodd" d="M29.0824 3.47179C26.3792 -1.15726 19.6208 -1.15726 16.9176 3.47179L12.3559 11.283L10.8352 11.2831C5.42882 11.2831 2.04962 17.0691 4.75281 21.6981L5.51343 22.9999L0.951363 30.8113C-1.75183 35.4403 1.62738 41.2263 7.03376 41.2263L16.1573 41.2262L16.9176 42.5282C19.6208 47.1573 26.3792 47.1573 29.0824 42.5282L29.843 41.2262L38.9663 41.2263C44.3726 41.2263 47.7518 35.4403 45.0486 30.8113L40.4869 22.9999L41.2472 21.6981C43.9504 17.0691 40.5712 11.2831 35.1648 11.2831L33.6445 11.283L29.0824 3.47179ZM33.6445 11.283H12.3559L5.51343 22.9999L16.1573 41.2262H29.843L40.4869 22.9999L33.6445 11.283Z" fill="#FACE4D"/>
</svg>
